<svg width="142" height="77" viewBox="0 0 142 77" fill="none" xmlns="http://www.w3.org/2000/svg">
<path d="M111.911 52.9842L123.514 64.5871C120.396 67.7056 117.314 70.7133 114.162 73.8281C114.063 73.7284 113.79 73.5365 113.557 73.304C110.07 69.8165 106.56 66.3512 103.12 62.8157C102.647 62.2902 102.374 61.6146 102.349 60.9077C102.297 53.881 102.32 46.8543 102.316 39.6099L100.906 39.6099C94.2633 39.6099 87.6204 39.6099 81.0071 39.5804C80.2991 39.5542 79.6232 39.2784 79.0991 38.8017C75.3643 35.1555 71.6775 31.4244 68.0055 27.7524C71.1314 24.6709 74.1945 21.6447 77.2945 18.589L88.8014 30.1623L89.1483 29.9704L89.1704 13.4961L102.246 13.4924L102.246 30.0036C106.257 25.9921 110.147 22.1023 114.004 18.2457L123.385 27.745C119.628 31.502 115.731 35.3991 111.815 39.2704L112 39.6099L128.433 39.5915L128.433 52.6632L112.026 52.6632L111.911 52.9842Z" fill="url(#paint0_linear_229_2)"/>
<path d="M16.7344 62.7266H7.48828L5.73047 68H0.123047L9.65039 42.4062H14.5371L24.1172 68H18.5098L16.7344 62.7266ZM8.91211 58.4551H15.3105L12.0938 48.875L8.91211 58.4551ZM43.3125 58.666C43.3125 61.7129 42.6621 64.0918 41.3613 65.8027C40.0605 67.502 38.2441 68.3516 35.9121 68.3516C33.8496 68.3516 32.2031 67.5605 30.9727 65.9785L30.7441 68H26.1738V41H31.2539V50.6855C32.4258 49.3145 33.9668 48.6289 35.877 48.6289C38.1973 48.6289 40.0137 49.4844 41.3262 51.1953C42.6504 52.8945 43.3125 55.291 43.3125 58.3848V58.666ZM38.2324 58.2969C38.2324 56.375 37.9277 54.9746 37.3184 54.0957C36.709 53.2051 35.8008 52.7598 34.5938 52.7598C32.9766 52.7598 31.8633 53.4219 31.2539 54.7461V62.252C31.875 63.5879 33 64.2559 34.6289 64.2559C36.2695 64.2559 37.3477 63.4473 37.8633 61.8301C38.1094 61.0566 38.2324 59.8789 38.2324 58.2969ZM45.668 58.3145C45.668 56.4277 46.0312 54.7461 46.7578 53.2695C47.4844 51.793 48.5273 50.6504 49.8867 49.8418C51.2578 49.0332 52.8457 48.6289 54.6504 48.6289C57.2168 48.6289 59.3086 49.4141 60.9258 50.9844C62.5547 52.5547 63.4629 54.6875 63.6504 57.3828L63.6855 58.6836C63.6855 61.6016 62.8711 63.9453 61.2422 65.7148C59.6133 67.4727 57.4277 68.3516 54.6855 68.3516C51.9434 68.3516 49.752 67.4727 48.1113 65.7148C46.4824 63.957 45.668 61.5664 45.668 58.543V58.3145ZM50.748 58.6836C50.748 60.4883 51.0879 61.8711 51.7676 62.832C52.4473 63.7812 53.4199 64.2559 54.6855 64.2559C55.916 64.2559 56.877 63.7871 57.5684 62.8496C58.2598 61.9004 58.6055 60.3887 58.6055 58.3145C58.6055 56.5449 58.2598 55.1738 57.5684 54.2012C56.877 53.2285 55.9043 52.7422 54.6504 52.7422C53.4082 52.7422 52.4473 53.2285 51.7676 54.2012C51.0879 55.1621 50.748 56.6562 50.748 58.6836ZM78.2051 66.0664C76.9512 67.5898 75.2168 68.3516 73.002 68.3516C70.9629 68.3516 69.4043 67.7656 68.3262 66.5938C67.2598 65.4219 66.7148 63.7051 66.6914 61.4434V48.9805H71.7715V61.2676C71.7715 63.248 72.6738 64.2383 74.4785 64.2383C76.2012 64.2383 77.3848 63.6406 78.0293 62.4453V48.9805H83.127V68H78.3457L78.2051 66.0664ZM93.041 44.3047V48.9805H96.293V52.707H93.041V62.1992C93.041 62.9023 93.1758 63.4062 93.4453 63.7109C93.7148 64.0156 94.2305 64.168 94.9922 64.168C95.5547 64.168 96.0527 64.127 96.4863 64.0449V67.8945C95.4902 68.1992 94.4648 68.3516 93.4102 68.3516C89.8477 68.3516 88.0312 66.5527 87.9609 62.9551V52.707H85.1836V48.9805H87.9609V44.3047H93.041Z" fill="url(#paint1_linear_229_2)"/>
<defs>
<linearGradient id="paint0_linear_229_2" x1="92.5248" y1="12.9312" x2="92.0788" y2="67.7776" gradientUnits="userSpaceOnUse">
<stop stop-color="#FFD100"/>
<stop offset="0.571269" stop-color="#FFD100" stop-opacity="0.23"/>
<stop offset="0.818814" stop-color="#FFD100" stop-opacity="0.06"/>
<stop offset="1" stop-color="#FFD100" stop-opacity="0"/>
</linearGradient>
<linearGradient id="paint1_linear_229_2" x1="49" y1="35" x2="49" y2="77" gradientUnits="userSpaceOnUse">
<stop stop-color="#FFD100"/>
<stop offset="0.760417" stop-color="#FFD100" stop-opacity="0.03"/>
<stop offset="0.817708" stop-color="#FFD100" stop-opacity="0"/>
<stop offset="0.90625" stop-color="#FFD100" stop-opacity="0"/>
<stop offset="1" stop-color="#FFD100" stop-opacity="0"/>
</linearGradient>
</defs>
</svg>
