<svg width="198" height="77" viewBox="0 0 198 77" fill="none" xmlns="http://www.w3.org/2000/svg">
<path d="M167.911 52.9842L179.514 64.5871C176.396 67.7056 173.314 70.7133 170.162 73.8281C170.063 73.7284 169.79 73.5365 169.557 73.304C166.07 69.8165 162.56 66.3512 159.12 62.8157C158.647 62.2902 158.374 61.6146 158.349 60.9077C158.297 53.881 158.32 46.8543 158.316 39.6099L156.906 39.6099C150.263 39.6099 143.62 39.6099 137.007 39.5804C136.299 39.5542 135.623 39.2784 135.099 38.8017C131.364 35.1555 127.678 31.4244 124.006 27.7524C127.131 24.6709 130.194 21.6447 133.294 18.589L144.801 30.1623L145.148 29.9704L145.17 13.4961L158.246 13.4924L158.246 30.0036C162.257 25.9921 166.147 22.1023 170.004 18.2457L179.385 27.745C175.628 31.502 171.731 35.3991 167.815 39.2704L168 39.6099L184.433 39.5915L184.433 52.6632L168.026 52.6632L167.911 52.9842Z" fill="url(#paint0_linear_230_2)"/>
<path d="M7.55859 58.9824V68H2.28516V42.4062H12.2695C14.1914 42.4062 15.8789 42.7578 17.332 43.4609C18.7969 44.1641 19.9219 45.166 20.707 46.4668C21.4922 47.7559 21.8848 49.2266 21.8848 50.8789C21.8848 53.3867 21.0234 55.3672 19.3008 56.8203C17.5898 58.2617 15.2168 58.9824 12.1816 58.9824H7.55859ZM7.55859 54.7109H12.2695C13.6641 54.7109 14.7246 54.3828 15.4512 53.7266C16.1895 53.0703 16.5586 52.1328 16.5586 50.9141C16.5586 49.6602 16.1895 48.6465 15.4512 47.873C14.7129 47.0996 13.6934 46.7012 12.3926 46.6777H7.55859V54.7109ZM24.1523 58.3145C24.1523 56.4277 24.5156 54.7461 25.2422 53.2695C25.9688 51.793 27.0117 50.6504 28.3711 49.8418C29.7422 49.0332 31.3301 48.6289 33.1348 48.6289C35.7012 48.6289 37.793 49.4141 39.4102 50.9844C41.0391 52.5547 41.9473 54.6875 42.1348 57.3828L42.1699 58.6836C42.1699 61.6016 41.3555 63.9453 39.7266 65.7148C38.0977 67.4727 35.9121 68.3516 33.1699 68.3516C30.4277 68.3516 28.2363 67.4727 26.5957 65.7148C24.9668 63.957 24.1523 61.5664 24.1523 58.543V58.3145ZM29.2324 58.6836C29.2324 60.4883 29.5723 61.8711 30.252 62.832C30.9316 63.7812 31.9043 64.2559 33.1699 64.2559C34.4004 64.2559 35.3613 63.7871 36.0527 62.8496C36.7441 61.9004 37.0898 60.3887 37.0898 58.3145C37.0898 56.5449 36.7441 55.1738 36.0527 54.2012C35.3613 53.2285 34.3887 52.7422 33.1348 52.7422C31.8926 52.7422 30.9316 53.2285 30.252 54.2012C29.5723 55.1621 29.2324 56.6562 29.2324 58.6836ZM55.9863 53.7441C55.2949 53.6504 54.6855 53.6035 54.1582 53.6035C52.2363 53.6035 50.9766 54.2539 50.3789 55.5547V68H45.2988V48.9805H50.0977L50.2383 51.248C51.2578 49.502 52.6699 48.6289 54.4746 48.6289C55.0371 48.6289 55.5645 48.7051 56.0566 48.8574L55.9863 53.7441ZM65.4082 44.3047V48.9805H68.6602V52.707H65.4082V62.1992C65.4082 62.9023 65.543 63.4062 65.8125 63.7109C66.082 64.0156 66.5977 64.168 67.3594 64.168C67.9219 64.168 68.4199 64.127 68.8535 64.0449V67.8945C67.8574 68.1992 66.832 68.3516 65.7773 68.3516C62.2148 68.3516 60.3984 66.5527 60.3281 62.9551V52.707H57.5508V48.9805H60.3281V44.3047H65.4082ZM76.8516 68H71.7539V48.9805H76.8516V68ZM71.4551 44.0586C71.4551 43.2969 71.707 42.6699 72.2109 42.1777C72.7266 41.6855 73.4238 41.4395 74.3027 41.4395C75.1699 41.4395 75.8613 41.6855 76.377 42.1777C76.8926 42.6699 77.1504 43.2969 77.1504 44.0586C77.1504 44.832 76.8867 45.4648 76.3594 45.957C75.8438 46.4492 75.1582 46.6953 74.3027 46.6953C73.4473 46.6953 72.7559 46.4492 72.2285 45.957C71.7129 45.4648 71.4551 44.832 71.4551 44.0586ZM82.4414 68V52.707H79.6113V48.9805H82.4414V47.3633C82.4414 45.2305 83.0508 43.5781 84.2695 42.4062C85.5 41.2227 87.2168 40.6309 89.4199 40.6309C90.123 40.6309 90.9844 40.748 92.0039 40.9824L91.9512 44.9199C91.5293 44.8145 91.0137 44.7617 90.4043 44.7617C88.4941 44.7617 87.5391 45.6582 87.5391 47.4512V48.9805H91.3184V52.707H87.5391V68H82.4414ZM93.1641 58.3145C93.1641 56.4277 93.5273 54.7461 94.2539 53.2695C94.9805 51.793 96.0234 50.6504 97.3828 49.8418C98.7539 49.0332 100.342 48.6289 102.146 48.6289C104.713 48.6289 106.805 49.4141 108.422 50.9844C110.051 52.5547 110.959 54.6875 111.146 57.3828L111.182 58.6836C111.182 61.6016 110.367 63.9453 108.738 65.7148C107.109 67.4727 104.924 68.3516 102.182 68.3516C99.4395 68.3516 97.248 67.4727 95.6074 65.7148C93.9785 63.957 93.1641 61.5664 93.1641 58.543V58.3145ZM98.2441 58.6836C98.2441 60.4883 98.584 61.8711 99.2637 62.832C99.9434 63.7812 100.916 64.2559 102.182 64.2559C103.412 64.2559 104.373 63.7871 105.064 62.8496C105.756 61.9004 106.102 60.3887 106.102 58.3145C106.102 56.5449 105.756 55.1738 105.064 54.2012C104.373 53.2285 103.4 52.7422 102.146 52.7422C100.904 52.7422 99.9434 53.2285 99.2637 54.2012C98.584 55.1621 98.2441 56.6562 98.2441 58.6836ZM119.672 68H114.574V41H119.672V68ZM129.234 68H124.137V48.9805H129.234V68ZM123.838 44.0586C123.838 43.2969 124.09 42.6699 124.594 42.1777C125.109 41.6855 125.807 41.4395 126.686 41.4395C127.553 41.4395 128.244 41.6855 128.76 42.1777C129.275 42.6699 129.533 43.2969 129.533 44.0586C129.533 44.832 129.27 45.4648 128.742 45.957C128.227 46.4492 127.541 46.6953 126.686 46.6953C125.83 46.6953 125.139 46.4492 124.611 45.957C124.096 45.4648 123.838 44.832 123.838 44.0586ZM132.645 58.3145C132.645 56.4277 133.008 54.7461 133.734 53.2695C134.461 51.793 135.504 50.6504 136.863 49.8418C138.234 49.0332 139.822 48.6289 141.627 48.6289C144.193 48.6289 146.285 49.4141 147.902 50.9844C149.531 52.5547 150.439 54.6875 150.627 57.3828L150.662 58.6836C150.662 61.6016 149.848 63.9453 148.219 65.7148C146.59 67.4727 144.404 68.3516 141.662 68.3516C138.92 68.3516 136.729 67.4727 135.088 65.7148C133.459 63.957 132.645 61.5664 132.645 58.543V58.3145ZM137.725 58.6836C137.725 60.4883 138.064 61.8711 138.744 62.832C139.424 63.7812 140.396 64.2559 141.662 64.2559C142.893 64.2559 143.854 63.7871 144.545 62.8496C145.236 61.9004 145.582 60.3887 145.582 58.3145C145.582 56.5449 145.236 55.1738 144.545 54.2012C143.854 53.2285 142.881 52.7422 141.627 52.7422C140.385 52.7422 139.424 53.2285 138.744 54.2012C138.064 55.1621 137.725 56.6562 137.725 58.6836Z" fill="url(#paint1_linear_230_2)"/>
<defs>
<linearGradient id="paint0_linear_230_2" x1="148.525" y1="12.9312" x2="148.079" y2="67.7776" gradientUnits="userSpaceOnUse">
<stop stop-color="#FFD100"/>
<stop offset="0.571269" stop-color="#FFD100" stop-opacity="0.23"/>
<stop offset="0.818814" stop-color="#FFD100" stop-opacity="0.06"/>
<stop offset="1" stop-color="#FFD100" stop-opacity="0"/>
</linearGradient>
<linearGradient id="paint1_linear_230_2" x1="76" y1="35" x2="76" y2="77" gradientUnits="userSpaceOnUse">
<stop stop-color="#FFD100"/>
<stop offset="0.760417" stop-color="#FFD100" stop-opacity="0.03"/>
<stop offset="0.817708" stop-color="#FFD100" stop-opacity="0"/>
<stop offset="0.90625" stop-color="#FFD100" stop-opacity="0"/>
<stop offset="1" stop-color="#FFD100" stop-opacity="0"/>
</linearGradient>
</defs>
</svg>
