<svg width="173" height="79" viewBox="0 0 173 79" fill="none" xmlns="http://www.w3.org/2000/svg">
<path d="M142.911 52.9842L154.514 64.5871C151.396 67.7056 148.314 70.7133 145.162 73.8281C145.063 73.7284 144.79 73.5365 144.557 73.304C141.07 69.8165 137.56 66.3512 134.12 62.8157C133.647 62.2902 133.374 61.6146 133.349 60.9077C133.297 53.881 133.32 46.8543 133.316 39.6099L131.906 39.6099C125.263 39.6099 118.62 39.6099 112.007 39.5804C111.299 39.5542 110.623 39.2784 110.099 38.8017C106.364 35.1555 102.678 31.4244 99.0055 27.7524C102.131 24.6709 105.194 21.6447 108.294 18.589L119.801 30.1623L120.148 29.9704L120.17 13.4961L133.246 13.4924L133.246 30.0036C137.257 25.9921 141.147 22.1023 145.004 18.2457L154.385 27.745C150.628 31.502 146.731 35.3991 142.815 39.2704L143 39.6099L159.433 39.5915L159.433 52.6632L143.026 52.6632L142.911 52.9842Z" fill="url(#paint0_linear_230_3)"/>
<path d="M22.377 61.4746C22.1777 64.2285 21.1582 66.3965 19.3184 67.9785C17.4902 69.5605 15.0762 70.3516 12.0762 70.3516C8.79492 70.3516 6.21094 69.25 4.32422 67.0469C2.44922 64.832 1.51172 61.7969 1.51172 57.9414V56.377C1.51172 53.916 1.94531 51.748 2.8125 49.873C3.67969 47.998 4.91602 46.5625 6.52148 45.5664C8.13867 44.5586 10.0137 44.0547 12.1465 44.0547C15.0996 44.0547 17.4785 44.8457 19.2832 46.4277C21.0879 48.0098 22.1309 50.2305 22.4121 53.0898H17.1387C17.0098 51.4375 16.5469 50.2422 15.75 49.5039C14.9648 48.7539 13.7637 48.3789 12.1465 48.3789C10.3887 48.3789 9.07031 49.0117 8.19141 50.2773C7.32422 51.5312 6.87891 53.4824 6.85547 56.1309V58.0645C6.85547 60.8301 7.27148 62.8516 8.10352 64.1289C8.94727 65.4062 10.2715 66.0449 12.0762 66.0449C13.7051 66.0449 14.918 65.6758 15.7148 64.9375C16.5234 64.1875 16.9863 63.0332 17.1035 61.4746H22.377ZM24.7148 60.3145C24.7148 58.4277 25.0781 56.7461 25.8047 55.2695C26.5312 53.793 27.5742 52.6504 28.9336 51.8418C30.3047 51.0332 31.8926 50.6289 33.6973 50.6289C36.2637 50.6289 38.3555 51.4141 39.9727 52.9844C41.6016 54.5547 42.5098 56.6875 42.6973 59.3828L42.7324 60.6836C42.7324 63.6016 41.918 65.9453 40.2891 67.7148C38.6602 69.4727 36.4746 70.3516 33.7324 70.3516C30.9902 70.3516 28.7988 69.4727 27.1582 67.7148C25.5293 65.957 24.7148 63.5664 24.7148 60.543V60.3145ZM29.7949 60.6836C29.7949 62.4883 30.1348 63.8711 30.8145 64.832C31.4941 65.7812 32.4668 66.2559 33.7324 66.2559C34.9629 66.2559 35.9238 65.7871 36.6152 64.8496C37.3066 63.9004 37.6523 62.3887 37.6523 60.3145C37.6523 58.5449 37.3066 57.1738 36.6152 56.2012C35.9238 55.2285 34.9512 54.7422 33.6973 54.7422C32.4551 54.7422 31.4941 55.2285 30.8145 56.2012C30.1348 57.1621 29.7949 58.6562 29.7949 60.6836ZM50.5371 50.9805L50.6953 53.1777C52.0547 51.4785 53.877 50.6289 56.1621 50.6289C58.1777 50.6289 59.6777 51.2207 60.6621 52.4043C61.6465 53.5879 62.1504 55.3574 62.1738 57.7129V70H57.0938V57.8359C57.0938 56.7578 56.8594 55.9785 56.3906 55.498C55.9219 55.0059 55.1426 54.7598 54.0527 54.7598C52.623 54.7598 51.5508 55.3691 50.8359 56.5879V70H45.7559V50.9805H50.5371ZM72.123 46.3047V50.9805H75.375V54.707H72.123V64.1992C72.123 64.9023 72.2578 65.4062 72.5273 65.7109C72.7969 66.0156 73.3125 66.168 74.0742 66.168C74.6367 66.168 75.1348 66.127 75.5684 66.0449V69.8945C74.5723 70.1992 73.5469 70.3516 72.4922 70.3516C68.9297 70.3516 67.1133 68.5527 67.043 64.9551V54.707H64.2656V50.9805H67.043V46.3047H72.123ZM89.2266 70C88.9922 69.543 88.8223 68.9746 88.7168 68.2949C87.4863 69.666 85.8867 70.3516 83.918 70.3516C82.0547 70.3516 80.5078 69.8125 79.2773 68.7344C78.0586 67.6562 77.4492 66.2969 77.4492 64.6562C77.4492 62.6406 78.1934 61.0938 79.6816 60.0156C81.1816 58.9375 83.3438 58.3926 86.168 58.3809H88.5059V57.291C88.5059 56.4121 88.2773 55.709 87.8203 55.1816C87.375 54.6543 86.666 54.3906 85.6934 54.3906C84.8379 54.3906 84.1641 54.5957 83.6719 55.0059C83.1914 55.416 82.9512 55.9785 82.9512 56.6934H77.8711C77.8711 55.5918 78.2109 54.5723 78.8906 53.6348C79.5703 52.6973 80.5312 51.9648 81.7734 51.4375C83.0156 50.8984 84.4102 50.6289 85.957 50.6289C88.3008 50.6289 90.1582 51.2207 91.5293 52.4043C92.9121 53.5762 93.6035 55.2285 93.6035 57.3613V65.6055C93.6152 67.4102 93.8672 68.7754 94.3594 69.7012V70H89.2266ZM85.0254 66.4668C85.7754 66.4668 86.4668 66.3027 87.0996 65.9746C87.7324 65.6348 88.2012 65.1836 88.5059 64.6211V61.3516H86.6074C84.0645 61.3516 82.7109 62.2305 82.5469 63.9883L82.5293 64.2871C82.5293 64.9199 82.752 65.4414 83.1973 65.8516C83.6426 66.2617 84.252 66.4668 85.0254 66.4668ZM105.416 66.2559C106.354 66.2559 107.115 65.998 107.701 65.4824C108.287 64.9668 108.592 64.2812 108.615 63.4258H113.379C113.367 64.7148 113.016 65.8984 112.324 66.9766C111.633 68.043 110.684 68.875 109.477 69.4727C108.281 70.0586 106.957 70.3516 105.504 70.3516C102.785 70.3516 100.641 69.4902 99.0703 67.7676C97.5 66.0332 96.7148 63.6426 96.7148 60.5957V60.2617C96.7148 57.332 97.4941 54.9941 99.0527 53.248C100.611 51.502 102.75 50.6289 105.469 50.6289C107.848 50.6289 109.752 51.3086 111.182 52.668C112.623 54.0156 113.355 55.8145 113.379 58.0645H108.615C108.592 57.0801 108.287 56.2832 107.701 55.6738C107.115 55.0527 106.342 54.7422 105.381 54.7422C104.197 54.7422 103.301 55.1758 102.691 56.043C102.094 56.8984 101.795 58.293 101.795 60.2266V60.7539C101.795 62.7109 102.094 64.1172 102.691 64.9727C103.289 65.8281 104.197 66.2559 105.416 66.2559ZM122.361 46.3047V50.9805H125.613V54.707H122.361V64.1992C122.361 64.9023 122.496 65.4062 122.766 65.7109C123.035 66.0156 123.551 66.168 124.312 66.168C124.875 66.168 125.373 66.127 125.807 66.0449V69.8945C124.811 70.1992 123.785 70.3516 122.73 70.3516C119.168 70.3516 117.352 68.5527 117.281 64.9551V54.707H114.504V50.9805H117.281V46.3047H122.361Z" fill="url(#paint1_linear_230_3)"/>
<defs>
<linearGradient id="paint0_linear_230_3" x1="123.525" y1="12.9312" x2="123.079" y2="67.7776" gradientUnits="userSpaceOnUse">
<stop stop-color="#FFD100"/>
<stop offset="0.571269" stop-color="#FFD100" stop-opacity="0.23"/>
<stop offset="0.818814" stop-color="#FFD100" stop-opacity="0.06"/>
<stop offset="1" stop-color="#FFD100" stop-opacity="0"/>
</linearGradient>
<linearGradient id="paint1_linear_230_3" x1="63.5" y1="37" x2="63.5" y2="79" gradientUnits="userSpaceOnUse">
<stop stop-color="#FFD100"/>
<stop offset="0.760417" stop-color="#FFD100" stop-opacity="0.03"/>
<stop offset="0.817708" stop-color="#FFD100" stop-opacity="0"/>
<stop offset="0.90625" stop-color="#FFD100" stop-opacity="0"/>
<stop offset="1" stop-color="#FFD100" stop-opacity="0"/>
</linearGradient>
</defs>
</svg>
