<svg width="73" height="44" viewBox="0 0 73 44" fill="none" xmlns="http://www.w3.org/2000/svg">
<path d="M53.9815 28.7581H72.1236C72.1236 33.6272 72.0709 38.3793 72.0417 43.2718C71.8895 43.2718 71.5267 43.3362 71.158 43.3362C65.7153 43.3362 60.2669 43.3713 54.8242 43.2952C54.0427 43.2555 53.3005 42.9403 52.7291 42.4057C47.2046 36.963 41.7327 31.4619 36.0735 25.8027L34.944 26.9205C29.7647 32.0822 24.5796 37.2791 19.3769 42.4174C18.8024 42.9508 18.0588 43.2656 17.276 43.3069C11.4997 43.3654 5.72354 43.3069 0 43.3069C0.0351137 38.4612 0.0643752 33.7033 0.0994889 28.8693L18.1421 28.9454L18.265 28.524L5.38996 15.649L15.6022 5.47187L28.4772 18.3469C28.4772 12.0791 28.4772 6.00443 28.4772 -0.0175781L43.2074 0.0936153C43.2074 5.9459 43.2074 12.044 43.1723 18.1245L43.5761 18.2416L56.4512 5.36653L66.6576 15.5729L53.841 28.4128L53.9815 28.7581Z" fill="#FFD100"/>
</svg>
